<svg width="29" height="32" viewBox="0 0 29 32" fill="current" xmlns="http://www.w3.org/2000/svg">
<path d="M20.1855 12.0293C22.5965 13.6871 24.6102 15.5135 25.999 17.3164V17.3174C28.1018 20.045 28.3751 22.1636 27.5986 23.4961V23.4971C27.0699 24.4062 25.9974 25.0753 24.2705 25.2764C24.3142 25.114 24.357 24.9513 24.3975 24.7881C24.8648 24.7226 25.3012 24.6175 25.6914 24.4629C26.2839 24.228 26.838 23.8531 27.1777 23.2764L27.1816 23.2695C27.6601 22.4417 27.5713 21.4434 27.2783 20.5449C27.0138 19.7342 26.5389 18.86 25.9004 17.9707L25.6172 17.5889L25.6143 17.585L25.2939 17.1846C24.5231 16.254 23.5912 15.3375 22.5684 14.458L20.874 13.001L20.916 15.2344C20.9188 15.382 20.9254 15.5284 20.9307 15.6514C20.9362 15.7798 20.9404 15.891 20.9404 16C20.9404 20.2017 20.2446 23.8617 19.1133 26.5244C17.9591 29.2408 16.4688 30.6738 15.0303 30.9443L15.0107 30.9482C14.8492 30.982 14.6786 31 14.498 31C13.4227 31 12.306 30.3773 11.2803 29.0146C11.4389 28.9716 11.5979 28.9278 11.7568 28.8818C12.4761 29.8131 13.398 30.5381 14.498 30.5381C14.7445 30.5381 15.004 30.4983 15.2539 30.417L15.2529 30.416C16.0997 30.1535 16.8142 29.4862 17.3936 28.6875C17.9918 27.8628 18.5262 26.7895 18.9736 25.542C19.8699 23.0432 20.46 19.7276 20.46 16C20.46 14.9941 20.3994 14.0496 20.3213 13.1406L20.2803 12.666L19.8867 12.3984C19.7878 12.3312 19.6865 12.2659 19.5859 12.1982C19.7886 12.1384 19.9881 12.0804 20.1855 12.0293ZM4.59766 7.22559C4.13509 7.28986 3.70152 7.39317 3.31348 7.54395C2.72613 7.77222 2.16177 8.14157 1.82227 8.72559C1.33762 9.55458 1.42503 10.5564 1.71875 11.4561C2.02146 12.3831 2.60022 13.3918 3.38477 14.4111C5.23593 16.8197 8.13583 19.1914 11.5176 21.1289V21.1299C12.3474 21.608 13.1987 22.0489 14.0684 22.4512L14.4912 22.6465L14.9141 22.4482C15.0302 22.3936 15.1461 22.3373 15.2627 22.2812C15.213 22.4851 15.162 22.682 15.1094 22.8721C14.0321 23.3751 12.9624 23.8127 11.918 24.168L11.1289 24.4102L11.126 24.4111C10.3278 24.6586 9.64084 24.84 9.02637 24.9707L9.02051 24.9717L8.94141 24.9883L8.68555 25.043C8.32036 25.1145 7.95985 25.1733 7.60449 25.2197L7.60352 25.2207C6.98714 25.3018 6.40193 25.3408 5.86328 25.3408C3.45795 25.3408 2.03395 24.5915 1.39746 23.4971L1.39648 23.4961C0.868452 22.5907 0.828558 21.33 1.5293 19.7393C1.65019 19.8589 1.77164 19.978 1.89453 20.0957C1.71566 20.5314 1.5877 20.9622 1.52539 21.3779C1.43051 22.011 1.47792 22.6868 1.82227 23.2744C2.30205 24.1 3.21388 24.5211 4.13867 24.7168C4.9759 24.894 5.97399 24.9215 7.06738 24.8154L7.54199 24.7617C8.89149 24.5871 10.3347 24.217 11.7988 23.7158L13.9297 22.9863L11.96 21.8945C11.8308 21.8229 11.7011 21.7556 11.5879 21.6963L11.2695 21.5244C7.77238 19.5177 4.84337 17.0802 2.99707 14.6836L2.99512 14.6797L2.73242 14.3242C2.65169 14.2092 2.5764 14.0963 2.50195 13.9834L2.49414 13.9717L2.2041 13.5273C0.840837 11.3367 0.736073 9.63843 1.39746 8.50391V8.50293C1.92307 7.6009 2.99751 6.93493 4.72461 6.73633C4.68117 6.89793 4.63852 7.06093 4.59766 7.22559ZM14.498 14.5381C14.8933 14.5381 15.2707 14.6948 15.5479 14.9697C15.8246 15.2444 15.9785 15.615 15.9785 16C15.9785 16.385 15.8246 16.7556 15.5479 17.0303C15.2707 17.3052 14.8933 17.4619 14.498 17.4619C14.1028 17.4619 13.7254 17.3052 13.4482 17.0303C13.1715 16.7556 13.0176 16.385 13.0176 16C13.0176 15.615 13.1715 15.2444 13.4482 14.9697C13.7254 14.6948 14.1028 14.5381 14.498 14.5381ZM14.498 1C15.5728 1 16.6886 1.62232 17.7139 2.9834C17.5544 3.02602 17.395 3.06887 17.2363 3.11426C16.9472 2.74159 16.6366 2.41463 16.3037 2.15234C15.7944 1.75107 15.182 1.46191 14.498 1.46191C13.7693 1.46192 13.1206 1.7875 12.5859 2.23633C12.0509 2.68551 11.5709 3.30457 11.1475 4.02637C10.2992 5.47222 9.59238 7.47773 9.13281 9.82812L8.68945 12.0957L10.6465 10.8662C10.9096 10.7009 11.0681 10.5912 11.2705 10.4766L11.2754 10.4736C14.774 8.46803 18.3698 7.16811 21.3906 6.78027C24.7181 6.35245 26.6936 7.11403 27.5234 8.37988L27.6006 8.50391C28.127 9.40615 28.1665 10.6668 27.4648 12.2588C27.3448 12.1401 27.2234 12.0218 27.1006 11.9043C27.2793 11.4684 27.409 11.0384 27.4717 10.623C27.567 9.99112 27.5215 9.31653 27.1816 8.72949L27.1797 8.72754L27.1064 8.61035C26.7274 8.03949 26.1326 7.68027 25.5039 7.46289C24.8275 7.22904 24.0218 7.12598 23.1475 7.12598H23.1436C22.577 7.12842 22.0109 7.16573 21.4492 7.23926C18.4209 7.62968 14.8994 8.93327 11.5205 10.8691L11.5127 10.873L11.5059 10.877C10.6849 11.3655 9.8816 11.8841 9.09863 12.4307L8.71582 12.6982L8.6748 13.1631C8.66419 13.2842 8.65516 13.406 8.64551 13.5283C8.48682 13.3805 8.33147 13.2347 8.18359 13.0869C8.47773 9.46207 9.31037 6.40956 10.4658 4.27148C11.6864 2.01299 13.1244 1.00001 14.498 1Z" fill="current" stroke="current" stroke-width="2"/>
</svg>
