<svg width="45" height="56" viewBox="0 0 45 56" fill="none" xmlns="http://www.w3.org/2000/svg">
<g clip-path="url(#clip0_713_58)">
<path d="M34.2983 11.0338L34.8708 11.4792L39.1241 6.83221C37.2054 4.93761 34.9469 3.41842 32.4658 2.35347H32.4479L32.0504 2.18715L31.4223 1.93965C28.3783 0.820786 25.1385 0.327102 21.898 0.488316C16.105 0.736665 10.6439 3.25016 6.69912 7.48363C0.245516 14.4136 -0.933106 24.4898 3.76151 32.5365L3.82113 32.6414C3.89467 32.7661 5.67354 35.7361 9.30481 39.11L10.557 37.7735L13.7947 34.2551L13.5681 34.0571C13.5396 34.0356 13.5124 34.0124 13.4866 33.9878L13.435 33.9462C13.2938 33.8294 13.1646 33.7205 13.0374 33.6096L12.954 33.5364C12.8307 33.4294 12.7135 33.3245 12.5982 33.2176L12.5286 33.1522L12.1927 32.8295L12.1669 32.8057C12.0556 32.6929 11.9463 32.584 11.8409 32.4731L11.7694 32.3979C11.666 32.2909 11.5706 32.184 11.4712 32.0771L11.4076 32.0058L11.1373 31.6969L11.1135 31.6692C11.0201 31.5583 10.9306 31.4514 10.8452 31.3445L10.7855 31.2712C10.7001 31.1663 10.6186 31.0614 10.5411 30.9604L10.4894 30.8911C10.4139 30.7921 10.3403 30.6931 10.2708 30.5961L10.2449 30.5624C10.1734 30.4634 10.1018 30.3644 10.0323 30.2614L9.98256 30.1902L9.78381 29.9011L9.74207 29.8358C9.68443 29.7467 9.6248 29.6536 9.56915 29.5625L9.55325 29.5407L9.38431 29.2596L9.34853 29.1982C9.29686 29.1111 9.24518 29.022 9.19748 28.9368L9.16965 28.8854C9.12593 28.8081 9.0822 28.7289 9.04046 28.6497L9.02456 28.622C8.97885 28.5369 8.93711 28.4557 8.89537 28.3745L8.87549 28.3369L8.7622 28.1052V28.0874C8.6827 27.9231 8.61711 27.7785 8.56345 27.6479V27.632C8.54755 27.5964 8.53165 27.5627 8.51773 27.5291V27.5192L8.48196 27.4241C7.41122 24.791 7.11924 21.9076 7.64048 19.1145C8.16172 16.3214 9.47441 13.7353 11.4235 11.6614C14.2223 8.65711 18.0974 6.87348 22.208 6.69757C23.2035 6.65081 24.2012 6.69189 25.1894 6.82033C26.203 6.96883 29.7985 7.68757 33.9923 10.8001L34.2983 11.0338Z" fill="#0030FF"/>
<path d="M44.7252 33.4594C44.5698 30.3989 43.7464 27.409 42.3123 24.6979C41.4484 23.1171 40.4026 21.6419 39.1958 20.3023C38.0791 19.1042 36.8371 18.0282 35.491 17.0928L31.351 21.5596C32.6985 22.4348 33.4379 22.9872 34.4038 24.0128C35.0745 24.7238 35.6816 25.4917 36.2185 26.3077C37.5283 28.3371 38.3313 30.9923 38.4763 33.7841C38.6751 37.6728 37.2202 41.5061 34.3641 44.5889C31.6142 47.5534 27.8021 49.3184 23.7545 49.5013C23.6253 49.5013 23.1582 49.525 22.9257 49.525C22.6931 49.525 22.2937 49.5151 21.8385 49.4815C21.3257 49.4439 20.805 49.3825 20.2981 49.2954C16.548 48.6739 13.0354 47.0569 10.1298 44.6147L10.1079 44.5968L10.0682 44.5612L5.86052 49.1528L5.85059 49.1647C13.0992 55.3363 20.2942 55.7897 22.246 55.7897C22.5322 55.7897 23.9493 55.7561 24.0765 55.7501C29.8194 55.4919 35.2285 52.9883 39.1303 48.7825C41.0491 46.7343 42.5336 44.3217 43.4949 41.6888C44.4562 39.056 44.8747 36.257 44.7252 33.4594Z" fill="#0030FF"/>
<path d="M33.6126 33.3803C33.6126 33.2892 33.6007 33.1922 33.5927 33.0912C33.5449 32.3961 33.4024 31.7107 33.1694 31.0538C31.3806 26.1256 26.0937 25.5455 22.4127 24.5297C22.0768 24.4367 21.7548 24.3317 21.4508 24.2367C20.7372 23.9635 19.968 23.7061 19.4632 22.924C18.9186 22.1003 18.9564 20.7895 19.7733 19.8847C21.0612 18.4472 22.6552 17.972 27.3419 19.4689L31.7006 14.7723C29.9832 14.038 28.1855 13.5064 26.3441 13.1884L26.4415 10.6144C24.0728 9.9052 21.5439 9.92868 19.1889 10.6817V13.1032C17.8946 13.5192 16.6976 14.1904 15.6691 15.0769C14.6406 15.9634 13.8017 17.0469 13.2024 18.2631C12.6737 19.3639 11.6521 22.522 13.0295 25.6286C15.4463 31.0796 23.1501 30.5786 25.6803 32.4061C26.4753 32.9803 26.9662 33.8555 26.9205 34.7604C26.8013 36.0454 25.877 36.6493 24.8554 36.9205C24.622 36.9812 24.385 37.0275 24.1459 37.0591C23.3578 37.1876 22.5586 37.2354 21.7608 37.2017C20.3054 37.1533 18.8687 36.86 17.5114 36.3345L13.0016 41.2844C14.9251 42.3682 17.0149 43.1282 19.1869 43.5337V45.8444C21.5799 46.3918 24.0688 46.3694 26.4514 45.779V43.1318C33.0223 40.8053 33.7398 35.4969 33.6206 33.3803" fill="#0030FF"/>
</g>
<defs>
<clipPath id="clip0_713_58">
<rect width="43.8455" height="55.3289" fill="white" transform="translate(0.907227 0.460815)"/>
</clipPath>
</defs>
</svg>
